<svg width="100" height="100" viewBox="0 0 100 100" fill="none" xmlns="http://www.w3.org/2000/svg">
<rect x="2.5" y="2.5" width="95" height="95" fill="#F5F5F5" stroke="#A9A9A9" stroke-width="5"/>
<path d="M41.6443 42.792C43.1803 42.472 44.6523 42.248 46.0603 42.12C47.4683 41.96 48.8283 41.88 50.1403 41.88C53.7883 41.88 57.0043 42.424 59.7883 43.512C62.5723 44.6 64.9083 46.104 66.7963 48.024C68.6843 49.944 70.1083 52.2 71.0683 54.792C72.0283 57.352 72.5083 60.12 72.5083 63.096C72.5083 66.776 71.8523 70.136 70.5403 73.176C69.2603 76.216 67.4683 78.824 65.1643 81C62.8603 83.144 60.1243 84.808 56.9563 85.992C53.8203 87.176 50.3963 87.768 46.6843 87.768C44.5083 87.768 42.4443 87.544 40.4923 87.096C38.5403 86.648 36.7003 86.056 34.9723 85.32C33.2763 84.552 31.6923 83.688 30.2203 82.728C28.7803 81.736 27.4843 80.696 26.3323 79.608L29.9803 74.568C30.7483 73.48 31.7563 72.936 33.0043 72.936C33.8043 72.936 34.6203 73.192 35.4523 73.704C36.2843 74.216 37.2283 74.776 38.2843 75.384C39.3723 75.992 40.6363 76.552 42.0763 77.064C43.5483 77.576 45.3083 77.832 47.3563 77.832C49.5323 77.832 51.4523 77.48 53.1163 76.776C54.7803 76.072 56.1563 75.096 57.2443 73.848C58.3643 72.568 59.1963 71.064 59.7403 69.336C60.3163 67.576 60.6043 65.672 60.6043 63.624C60.6043 59.848 59.5003 56.904 57.2923 54.792C55.1163 52.648 51.8843 51.576 47.5963 51.576C44.3003 51.576 40.9243 52.184 37.4683 53.4L30.0763 51.288L35.8363 17.592H70.1083V22.632C70.1083 24.328 69.5803 25.704 68.5243 26.76C67.4683 27.816 65.6763 28.344 63.1483 28.344H44.0923L41.6443 42.792Z" fill="#8B0000"/>
</svg>
