<svg width="100" height="100" viewBox="0 0 100 100" fill="none" xmlns="http://www.w3.org/2000/svg">
<rect x="2.5" y="2.5" width="95" height="95" fill="#F5F5F5" stroke="#A9A9A9" stroke-width="5"/>
<path d="M74.5723 17.592V22.728C74.5723 24.264 74.4123 25.512 74.0923 26.472C73.7723 27.4 73.4523 28.184 73.1323 28.824L46.8282 82.968C46.2843 84.088 45.5163 85.048 44.5243 85.848C43.5323 86.616 42.2043 87 40.5403 87H31.9483L58.7803 33.96C59.3883 32.872 59.9803 31.88 60.5563 30.984C61.1643 30.056 61.8363 29.176 62.5723 28.344H29.3563C28.6203 28.344 27.9803 28.072 27.4363 27.528C26.8923 26.984 26.6203 26.344 26.6203 25.608V17.592H74.5723Z" fill="black"/>
</svg>
