<svg width="100" height="100" viewBox="0 0 100 100" fill="none" xmlns="http://www.w3.org/2000/svg">
<rect x="2.5" y="2.5" width="95" height="95" fill="#F5F5F5" stroke="#A9A9A9" stroke-width="5"/>
<path d="M47.2123 42.792L44.8123 45.768C46.1563 45.096 47.5963 44.584 49.1323 44.232C50.7003 43.848 52.3803 43.656 54.1723 43.656C56.7963 43.656 59.3403 44.088 61.8043 44.952C64.3003 45.816 66.4923 47.128 68.3803 48.888C70.2683 50.616 71.7883 52.776 72.9403 55.368C74.0923 57.96 74.6683 60.984 74.6683 64.44C74.6683 67.672 74.0763 70.712 72.8923 73.56C71.7083 76.376 70.0443 78.84 67.9003 80.952C65.7563 83.064 63.1643 84.728 60.1243 85.944C57.1163 87.16 53.7883 87.768 50.1403 87.768C46.4283 87.768 43.1003 87.176 40.1563 85.992C37.2123 84.808 34.7003 83.16 32.6203 81.048C30.5403 78.904 28.9403 76.344 27.8203 73.368C26.7323 70.36 26.1883 67.032 26.1883 63.384C26.1883 60.12 26.8443 56.776 28.1562 53.352C29.5003 49.896 31.5643 46.312 34.3483 42.6L50.9083 20.376C51.4843 19.608 52.3163 18.952 53.4043 18.408C54.5243 17.864 55.8043 17.592 57.2443 17.592H67.8043L47.2123 42.792ZM49.9003 78.072C51.7883 78.072 53.5163 77.752 55.0843 77.112C56.6843 76.472 58.0443 75.576 59.1643 74.424C60.3163 73.272 61.2123 71.928 61.8523 70.392C62.4923 68.824 62.8123 67.128 62.8123 65.304C62.8123 63.32 62.5083 61.544 61.9003 59.976C61.2923 58.376 60.4283 57.032 59.3083 55.944C58.1883 54.824 56.8443 53.976 55.2763 53.4C53.7083 52.824 51.9803 52.536 50.0923 52.536C48.2043 52.536 46.4923 52.856 44.9563 53.496C43.4203 54.136 42.1083 55.032 41.0203 56.184C39.9323 57.304 39.0843 58.648 38.4763 60.216C37.8683 61.752 37.5643 63.416 37.5643 65.208C37.5643 67.128 37.8203 68.888 38.3323 70.488C38.8763 72.056 39.6603 73.4 40.6843 74.52C41.7403 75.64 43.0363 76.52 44.5723 77.16C46.1083 77.768 47.8843 78.072 49.9003 78.072Z" fill="#008080"/>
</svg>
