<svg width="100" height="100" viewBox="0 0 100 100" fill="none" xmlns="http://www.w3.org/2000/svg">
<rect x="2.5" y="2.5" width="95" height="95" fill="#F5F5F5" stroke="#A9A9A9" stroke-width="5"/>
<path d="M27.3403 36.936C27.8203 33.608 28.7483 30.696 30.1243 28.2C31.5003 25.672 33.2123 23.576 35.2603 21.912C37.3403 20.216 39.7083 18.952 42.3643 18.12C45.0523 17.256 47.9323 16.824 51.0043 16.824C54.2043 16.824 57.0843 17.288 59.6443 18.216C62.2363 19.112 64.4443 20.376 66.2683 22.008C68.0923 23.608 69.4843 25.496 70.4443 27.672C71.4363 29.848 71.9323 32.2 71.9323 34.728C71.9323 36.936 71.6763 38.888 71.1643 40.584C70.6843 42.248 69.9803 43.704 69.0523 44.952C68.1243 46.2 66.9723 47.256 65.5963 48.12C64.2203 48.984 62.6683 49.704 60.9403 50.28C65.1003 51.592 68.2043 53.592 70.2523 56.28C72.3003 58.968 73.3243 62.344 73.3243 66.408C73.3243 69.864 72.6843 72.92 71.4043 75.576C70.1243 78.232 68.3963 80.472 66.2203 82.296C64.0443 84.088 61.5163 85.448 58.6363 86.376C55.7883 87.304 52.7643 87.768 49.5643 87.768C46.0763 87.768 43.0363 87.368 40.4443 86.568C37.8523 85.768 35.5963 84.584 33.6763 83.016C31.7563 81.448 30.1243 79.528 28.7803 77.256C27.4363 74.984 26.2843 72.36 25.3242 69.384L30.5563 67.224C31.9323 66.648 33.2123 66.504 34.3963 66.792C35.6123 67.048 36.4923 67.688 37.0363 68.712C37.6123 69.832 38.2363 70.936 38.9083 72.024C39.6123 73.112 40.4443 74.088 41.4043 74.952C42.3643 75.784 43.4843 76.472 44.7643 77.016C46.0763 77.528 47.6283 77.784 49.4203 77.784C51.4363 77.784 53.1963 77.464 54.7003 76.824C56.2043 76.152 57.4523 75.288 58.4443 74.232C59.4683 73.176 60.2203 72.008 60.7003 70.728C61.2123 69.416 61.4683 68.104 61.4683 66.792C61.4683 65.128 61.2923 63.624 60.9403 62.28C60.5883 60.904 59.8523 59.736 58.7323 58.776C57.6123 57.816 55.9963 57.064 53.8843 56.52C51.8043 55.976 49.0043 55.704 45.4843 55.704V47.256C48.3963 47.224 50.8123 46.952 52.7323 46.44C54.6523 45.928 56.1723 45.224 57.2923 44.328C58.4443 43.4 59.2443 42.296 59.6923 41.016C60.1403 39.736 60.3643 38.328 60.3643 36.792C60.3643 33.528 59.4523 31.048 57.6283 29.352C55.8043 27.656 53.3723 26.808 50.3323 26.808C48.9243 26.808 47.6283 27.016 46.4443 27.432C45.2603 27.816 44.1883 28.376 43.2283 29.112C42.3003 29.816 41.5163 30.648 40.8763 31.608C40.2363 32.568 39.7563 33.624 39.4363 34.776C38.8923 36.248 38.1723 37.224 37.2763 37.704C36.4123 38.184 35.1803 38.296 33.5803 38.04L27.3403 36.936Z" fill="#FF0000"/>
</svg>
