<svg width="100" height="100" viewBox="0 0 100 100" fill="none" xmlns="http://www.w3.org/2000/svg">
<rect x="2.5" y="2.5" width="95" height="95" fill="#F5F5F5" stroke="#A9A9A9" stroke-width="5"/>
<path d="M69.2443 75.96C70.5243 75.96 71.5323 76.328 72.2683 77.064C73.0363 77.768 73.4203 78.712 73.4203 79.896V87H25.8043V83.064C25.8043 82.264 25.9643 81.432 26.2843 80.568C26.6363 79.672 27.1803 78.872 27.9163 78.168L48.9883 57.048C50.7483 55.256 52.3163 53.544 53.6923 51.912C55.1003 50.28 56.2683 48.664 57.1963 47.064C58.1243 45.464 58.8283 43.848 59.3083 42.216C59.8203 40.552 60.0763 38.808 60.0763 36.984C60.0763 35.32 59.8363 33.864 59.3563 32.616C58.8763 31.336 58.1883 30.264 57.2923 29.4C56.4283 28.536 55.3723 27.896 54.1243 27.48C52.9083 27.032 51.5323 26.808 49.9963 26.808C48.5883 26.808 47.2763 27.016 46.0603 27.432C44.8763 27.816 43.8203 28.376 42.8923 29.112C41.9643 29.816 41.1803 30.648 40.5403 31.608C39.9003 32.568 39.4203 33.624 39.1003 34.776C38.5563 36.248 37.8523 37.224 36.9883 37.704C36.1243 38.184 34.8763 38.296 33.2443 38.04L27.0043 36.936C27.4843 33.608 28.4123 30.696 29.7883 28.2C31.1643 25.672 32.8763 23.576 34.9243 21.912C37.0043 20.216 39.3723 18.952 42.0283 18.12C44.7163 17.256 47.5963 16.824 50.6683 16.824C53.8683 16.824 56.7963 17.304 59.4523 18.264C62.1083 19.192 64.3803 20.52 66.2683 22.248C68.1563 23.976 69.6283 26.056 70.6843 28.488C71.7403 30.92 72.2683 33.624 72.2683 36.6C72.2683 39.16 71.8843 41.528 71.1163 43.704C70.3803 45.88 69.3723 47.96 68.0923 49.944C66.8443 51.928 65.3723 53.848 63.6763 55.704C61.9803 57.56 60.2043 59.448 58.3483 61.368L42.7003 77.352C44.2043 76.904 45.6923 76.568 47.1643 76.344C48.6683 76.088 50.0923 75.96 51.4363 75.96H69.2443Z" fill="#008000"/>
</svg>
